<?xml version="1.0" standalone="no"?>
<!DOCTYPE svg PUBLIC "-//W3C//DTD SVG 1.1//EN" "http://www.w3.org/Graphics/SVG/1.1/DTD/svg11.dtd" >
<svg viewBox="0 -275 1000 1000">
  <g transform="matrix(1 0 0 -1 0 725)">
   <path fill="currentColor"
d="M118.751 334.787c12.08 0.300018 21.431 -12.309 25.549 -45.7l-30.77 -73.88c0 55.26 -8.91 74.15 -20.99 74.68c-15.4707 0.670013 -36.1601 -28.73 -50.0605 -50.369v-144.061c13.9199 -21.6699 34.6504 -51.1201 50.1221 -50.3496
c12.0574 0.599602 20.9284 19.5196 20.9284 74.6796l30.77 -73.8798c-3.71901 -30.1797 -11.719 -43.3799 -22.141 -45.4199c-31.7498 -6.20997 -85.9998 91.1397 -110.459 127.58v78.871c23.5996 35.16 74.959 127.059 107.051 127.849zM118.751 334.787z" />
  </g>

</svg>
